<?xml version="1.0" standalone="no"?><!DOCTYPE svg PUBLIC "-//W3C//DTD SVG 1.1//EN" "http://www.w3.org/Graphics/SVG/1.1/DTD/svg11.dtd"><svg t="1694881442286" class="icon" viewBox="0 0 1024 1024" version="1.1" xmlns="http://www.w3.org/2000/svg" p-id="17500" xmlns:xlink="http://www.w3.org/1999/xlink" width="200" height="200"><path d="M914.26 511.048h-756v357.64c0 39.936 32.424 72.36 72.36 72.36H841.16c40.344 0 73.1-32.756 73.1-73.1v-356.9z" fill="#3C466C" p-id="17501"></path><path d="M874.26 590.992a29.96 29.96 0 0 0-29.944-29.944H228.2a29.956 29.956 0 0 0-29.94 29.944v272.112a29.956 29.956 0 0 0 29.94 29.944h616.116a29.96 29.96 0 0 0 29.944-29.944v-272.112z" fill="#43507A" p-id="17502"></path><path d="M599.428 710.92a19.052 19.052 0 0 1 0 32.252l-123.148 77.5a19.056 19.056 0 0 1-29.2-16.128v-154.992a19.04 19.04 0 0 1 9.844-16.68 19.04 19.04 0 0 1 19.356 0.552l123.148 77.496z" fill="#ADCBF1" p-id="17503"></path><path d="M476.28 633.424l123.148 77.496a19.052 19.052 0 0 1 7.276 23.836c-14.372 1.256-29.276 1.92-44.556 1.92-42.364 0-81.864-5.088-115.068-13.86v-73.264a19.04 19.04 0 0 1 9.844-16.68 19.04 19.04 0 0 1 19.356 0.552z" fill="#FFFFFF" fill-opacity=".6" p-id="17504"></path><path d="M914.26 403.72c0-19.744-16.032-35.772-35.776-35.772H128.26v107.324c0 19.744 16.028 35.776 35.776 35.776h750.224V403.72z" fill="#3A4871" p-id="17505"></path><path d="M878.216 117.508c-5.108-19.072-24.74-30.408-43.816-25.296L109.74 286.384l27.78 103.668c5.108 19.072 24.744 30.408 43.816 25.3L871.44 230.436c19.072-5.108 30.408-24.744 25.296-43.816l-18.52-69.112z" fill="#3B4872" p-id="17506"></path><path d="M228.764 511.048l141.784-143.1h174.556l-141.784 143.1H228.764z m304 0l141.784-143.1h174.556l-141.784 143.1h-174.556zM243.856 398.596l99.916-174.92 168.608-45.18-99.912 174.924-168.612 45.176z m293.644-78.68l99.912-174.92 168.612-45.18-99.916 174.92-168.608 45.18z" fill="#B7D7F5" p-id="17507"></path><path d="M109.74 293.676a39.912 39.912 0 0 1 11.684-28.212 39.912 39.912 0 0 1 28.212-11.684h113.432c14.06 0 27.08 7.4 34.276 19.48l43.648 73.28a32.132 32.132 0 0 1-4.808 39.088l-124.336 125.236a34.444 34.444 0 0 1-24.456 10.184H144.204a34.468 34.468 0 0 1-34.464-34.464V293.676z" fill="#9DAFDD" p-id="17508"></path></svg>