<?xml version="1.0" standalone="no"?><!DOCTYPE svg PUBLIC "-//W3C//DTD SVG 1.1//EN" "http://www.w3.org/Graphics/SVG/1.1/DTD/svg11.dtd"><svg t="1694881241191" class="icon" viewBox="0 0 1024 1024" version="1.1" xmlns="http://www.w3.org/2000/svg" p-id="9302" xmlns:xlink="http://www.w3.org/1999/xlink" width="200" height="200"><path d="M97.28 512c0 225.792 172.544 408.576 386.048 408.576s386.048-182.784 386.048-408.576S696.32 103.424 483.328 103.424C269.824 103.424 97.28 286.208 97.28 512z" fill="#3366FF" p-id="9303"></path><path d="M502.272 838.656h385.536c21.504 0 38.912 18.432 38.912 40.96s-17.408 40.96-38.912 40.96H502.272c-21.504 0-38.912-18.432-38.912-40.96 0.512-22.528 17.408-40.96 38.912-40.96z" fill="#3366FF" p-id="9304"></path><path d="M386.56 307.712c0 56.32 43.008 101.888 96.256 101.888s96.256-45.568 96.256-101.888-43.008-101.888-96.256-101.888c-53.248-0.512-96.256 45.568-96.256 101.888zM483.328 613.888c53.248 0 96.256 45.568 96.256 101.888s-43.008 101.888-96.256 101.888-96.256-45.568-96.256-101.888 42.496-101.888 96.256-101.888z" fill="#FFFFFF" p-id="9305"></path><path d="M270.848 409.6c53.248 0 96.768 45.568 96.768 101.888s-43.008 102.4-96.256 102.4S174.592 568.32 174.592 512c0-56.32 43.008-101.888 96.256-102.4zM695.296 409.6c53.248 0 96.256 45.568 96.256 101.888s-43.008 101.888-96.256 101.888S599.04 568.32 599.04 512s43.008-102.4 96.256-102.4z" fill="#AEC9FF" p-id="9306"></path></svg>